<?xml version="1.0" encoding="UTF-8" standalone="no"?>
<svg
   xmlns:dc="http://purl.org/dc/elements/1.1/"
   xmlns:cc="http://creativecommons.org/ns#"
   xmlns:rdf="http://www.w3.org/1999/02/22-rdf-syntax-ns#"
   xmlns:svg="http://www.w3.org/2000/svg"
   xmlns="http://www.w3.org/2000/svg"
   viewBox="0 0 1600 1600"
   height="1600"
   width="1600"
   xml:space="preserve"
   id="svg2"
   version="1.1"><metadata
     id="metadata8"><rdf:RDF><cc:Work
         rdf:about=""><dc:format>image/svg+xml</dc:format><dc:type
           rdf:resource="http://purl.org/dc/dcmitype/StillImage" /><dc:title></dc:title></cc:Work></rdf:RDF></metadata><defs
     id="defs6" /><g
     transform="matrix(1.3333333,0,0,-1.3333333,0,1600)"
     id="g10"><g
   transform="matrix(0.12724157,0,0,0.12724157,-162,-364.3989)"
   id="g12"><path
     id="path14"
     style="fill:#fcead3;fill-opacity:1;fill-rule:nonzero;stroke:none"
     d="M 12000,0 H 0 V 12000 H 12000 V 0" /><path
     id="path16"
     style="fill:#f14644;fill-opacity:1;fill-rule:nonzero;stroke:none"
     d="m 5940.58,7249.85 c 0,-789.89 -640.34,-1430.23 -1430.22,-1430.23 -789.9,0 -1430.22,640.34 -1430.22,1430.23 0,789.88 640.32,1430.21 1430.22,1430.21 789.88,0 1430.22,-640.33 1430.22,-1430.21" /><path
     id="path18"
     style="fill:#df9ed4;fill-opacity:1;fill-rule:nonzero;stroke:none"
     d="m 8912.75,7056.92 c 0,-1215.68 -985.51,-2201.2 -2201.2,-2201.2 -1215.69,0 -2201.19,985.52 -2201.19,2201.2 h 4402.39" /><path
     id="path20"
     style="fill:none;stroke:#c137a3;stroke-width:210;stroke-linecap:butt;stroke-linejoin:miter;stroke-miterlimit:10;stroke-dasharray:none;stroke-opacity:1"
     d="m 8285.93,9263.93 c 0,-544.54 -441.43,-985.97 -985.97,-985.97 -544.54,0 -985.97,441.43 -985.97,985.97 0,544.54 441.43,985.97 985.97,985.97 544.54,0 985.97,-441.43 985.97,-985.97 z" /><g
     transform="scale(10)"
     id="g22"><text
   id="text26"
   style="font-variant:normal;font-weight:800;font-size:96px;font-family:Nunito;-inkscape-font-specification:Nunito-ExtraBold;writing-mode:lr-tb;fill:#352827;fill-opacity:1;fill-rule:nonzero;stroke:none"
   transform="matrix(1,0,0,-1,224.041,316.653)"><tspan
     id="tspan24"
     y="0"
     x="0 78.814941 146.30228 218.87703 281.46881 364.60501 447.069 524.9245 608.53967 692.25165">RESTAURANT</tspan></text>

<text
   id="text30"
   style="font-variant:normal;font-weight:bold;font-size:58px;font-family:Nunito;-inkscape-font-specification:Nunito-Bold;writing-mode:lr-tb;fill:#352827;fill-opacity:1;fill-rule:nonzero;stroke:none"
   transform="matrix(1,0,0,-1,388.812,232.8921)"><tspan
     id="tspan28"
     y="0"
     x="0 61.770466 130.15176 202.1293 259.25873 325.49414 392.02014">COMPANY</tspan></text>

</g></g><rect
   transform="scale(1,-1)"
   y="-221.78674"
   x="-188.64345"
   height="476.26718"
   width="1752.0792"
   id="rect4550"
   style="opacity:1;fill:#fcead3;fill-opacity:1;stroke:none;stroke-width:4.04069996;stroke-miterlimit:4;stroke-dasharray:none;stroke-opacity:1" />
<rect
   transform="scale(1,-1)"
   y="-1364.1174"
   x="-15.895516"
   height="292.77905"
   width="1335.4907"
   id="rect4550-3"
   style="opacity:1;fill:#fcead3;fill-opacity:1;stroke:none;stroke-width:2.76595283;stroke-miterlimit:4;stroke-dasharray:none;stroke-opacity:1" /></g></svg>